<?xml version='1.0' encoding='utf-8'?>
<svg xmlns="http://www.w3.org/2000/svg" enable-background="new -0.0469 133.5322 1920.0938 991.6411" version="1.1" viewBox="-0.0469 133.5322 1920.0938 991.6411">
<g stroke="#000" stroke-width=".0938">
	<path d="m1863.5 135.82c18.49-0.98 37.01-1.49 55.51-2.22 0.02 209.13 0.01 418.27 0.01 627.4 0.1 11.06-0.24 22.13 0.22 33.19-8.25 6.43-15.5 14.27-24.76 19.31-35 20.67-69.55 42.11-105.02 61.97-14.29 8.02-28.4 16.35-42.78 24.19-21.43 10.93-42.86 21.84-64.24 32.86-1.76 0.77-3.51 2.23-5.53 1.67-3.4501-0.75-6.74 1.07-10.11 1.45-11.37 2.17-22.69-1.78-32.84-6.56-11.12-5.16-19.98-14.06-27.35-23.66-12.35-16.3-21.02-34.96-29.54-53.45-4.17-9.52-10.46-17.96-14.31-27.63-0.83-2.1801-1.09-4.5-1.34-6.78 1.41-0.61 2.83-1.25 4.2999-1.78-1.01 1.86-2.8199 3.83-1.8099 6.09 1.86 6.28 5.54 11.8 8.6899 17.48 5.2201 8.56 8.7001 18.01 13.14 26.97 8.5 17.04 17.6 34.19 30.94 48 8.96 9.37 20.86 15.47 33.29 18.8 7.63 2.05 15.75 1.45 23.28-0.74 1.0701-0.46 3.29-0.72 2.8201-2.43-1.75-13.01-4.1901-25.94-6.0701-38.94-1.0699-8.47-3.98-16.51-6.29-24.67-3.2999-11.4-6.5399-22.82-9.87-34.21-3.5-10.74-7.2-21.42-10.84-32.11-3.52-10.54-7.09-21.06-10.64-31.59-2.24-7.23-5.9399-13.88-8.99-20.77-6.13-13.21-12.27-26.41-18.42-39.61-3.4301-6.73-5.17-14.12-7.55-21.24-7-21.78-13.66-43.67-20.86-65.38-10.08-21.16-20.52-42.16-30.68-63.28-7.99-17.04-15.86-34.13-23.81-51.17-1.8101-3.79-3.3-7.78-5.87-11.13-12.44-16.57-24.91-33.12-37.34-49.7-4.5599-5.77-8.5399-12.01-13.55-17.41-15.1-14.9-30.23-29.77-45.31-44.7-2.7799-2.57-5.12-6.06-9.0299-6.95-10.57-3.23-21.1-6.56-31.65-9.82-6.51-2.12-13.13-3.9-19.56-6.25 18.53-9.05 37.41-17.37 56.04-26.21 15.12-6.92 30.04-14.3 45.3-20.93 39.85-15.78 79.57-31.89 119.49-47.47 22.79-7.78 45.6-15.52 68.42-23.23 5.2001-1.64 8.6901-6.14 12.95-9.29 7.87-6.44 15.51-13.19 23.53-19.45 8.28-5.14 16.73-10.02 25.15-14.93 11.25-5.51 22.76-10.49 34.08-15.84 6.84-3.6 14.68-4.23 22.05-6.21 12.06-2.76 24.17-5.39 36.09-8.71 6.65-4.13 12.54-9.45 18.87-14.08 5.7201-4.98 13.25-6.83 19.98-9.99 7.3201-2.8201 14.33-6.5301 21.81-8.8601m-132.15 682.59c-11.27 1.42-20.09 12.37-19.32 23.66 0.39 11.75 11.13 22.05 22.99 21.44 12.79 0.54 23.93-11.86 22.4-24.5-0.4901-12.79-13.58-22.85-26.07-20.6z"/>
	<path d="m0 213.71c8.65 6.79 17.3 13.59 26.05 20.25 6.84 4.05 14.21 7.12 21.2 10.89 5.07 2.98 11.12 2.78 16.75 3.7 15.17 2.1 30.41 3.73 45.53 6.09 23.77 8.38 47.35 17.35 71.07 25.91 6.41 2.18 12.35 5.47 18.45 8.38 18.2 8.79 36.36 17.69 54.57 26.46 9.06 4.32 17.92 9.06 27.23 12.81 25.82 10.81 51.62 21.67 77.43 32.49 18.71 7.63 37.06 16.22 56.21 22.71 19.82 7.16 39.75 14.01 59.5 21.34-1.47 2.24-2.87 4.52-4.35 6.74-8.22 12.53-16.36 25.11-24.53 37.67-2.47 3.88-5.24 7.6-7.17 11.79-14.55 30.07-29.32 60.03-43.8 90.13-29.82 78.24-59.4 156.57-89.3 234.78-2.31 6.59-5.41 12.93-7.09 19.74-3.61 18.28-7.28 36.55-10.83 54.84-4.01 19.86-7.81 39.75-11.93 59.59-4.42 16.61-5.87 33.84-10.59 50.39-1.58 6.67-4.43 12.99-5.66 19.76 4.04-3.07 7.39-6.89 10.99-10.44 6.2-6.14 12.35-12.33 18.53-18.49 4.8-4.79 7.59-11.07 11.27-16.66 7.7-12.22 15.09-24.62 21.74-37.44 7.26-11.54 9.87-25.11 14.58-37.74 0.47 0.13 1.42 0.39 1.9 0.52-3.72 9.78-6.36 19.94-10.26 29.65-7.31 13.55-14.45 27.22-22.78 40.19-4.49 6.86-8.22 14.26-13.2 20.77-13.04 12.97-25.87 26.15-39.13 38.89-4.87 5.15-9.24 10.76-14.29 15.75-27.33-11.82-54.48-24.05-82.1-35.19-28.45-11.86-57.15-23.13-85.34-35.63-11.62-5.03-23.22-10.1-34.85-15.13-11.87-4.79-23.92-9.1299-35.8-13.9v-701.61m196.29 676.59c-10.17 2.32-17.95 12.24-17.4 22.73-0.02 12.03 11.09 22.74 23.14 22.07 12.53 0.2401 23.57-11.61 22.3-24.11-0.33-13.67-14.88-24.33-28.04-20.69z"/>
	<path d="m912.65 366.78c10.33-3.82 21.44-4.41 32.3-5.48 18.95-1.71 38.38-0.1 56.33 6.46 23.08 8.52 47.74 10.64 71.67 15.58 26.06 5.89 52.13 11.78 78.3 17.18 30.65 5.77 60.81 13.77 91.08 21.2 23.52 4.36 47.46-0.24 70.61-4.66 11.05-2.22 21.21-7.24 31.1-12.49 2.2 4.5 2.6899 9.55 3.97 14.34 1.9 7.53 3.1899 15.22 5.48 22.65 6.4 16.69 13.1 33.28 18.43 50.36 4.23 13.01 9.12 25.83 11.98 39.25 4.4399 19.98 11.53 39.21 17.2 58.84 10.73 47.29 21.36 94.6 32.09 141.89 0.2301 1.91 1.3701 3.9 0.8201 5.8199-6.41 3.4-11.91 8.25-16.23 14.07-5.1901 7.11-12.45 12.22-18.74 18.25-7.61 7.13-15.65 13.79-24.11 19.89-5.4601 3.96-9.9401 10.26-16.89 11.5-5-3.75-8.92-8.75-13.44-13.03-13.7-13.99-27.2-28.14-40.68-42.33-6.1001-6.21-11.82-12.84-18.54-18.42-15.72-13.3-34.13-22.73-51.58-33.46-29.22-18.42-57.19-38.71-85.41-58.59-35.19-24.66-71.07-48.31-106.81-72.17-15.88-10.43-31.22-21.65-47.33-31.71-18.48-11.53-37.91-22.11-59.06-27.77-13.25-3.49-27.25-4.82-40.8-2.42-13.77 2.61-27.25 6.62-40.32 11.63-46.44 17.72-86.75 47.75-132.04 67.89-17.14 7.75-34.77 14.39-52.61 20.32-5.22 1.24-10.65 0.01-15.79-1.06-5.07-1.34-10.68-2.53-14.31-6.63-2.97-3.06-6.06-6.06-8.39-9.65-2.88-4.44-2.72-9.94-2.92-15.01-0.02-3.24-0.45-6.76 1.38-9.63 3.03-5.12 7.54-9.14 12.06-12.92 8.04-6.49 16.72-12.13 25.5-17.56 7.9-4.96 16.2-9.47 22.98-15.99 24.34-23.13 34.23-57.26 58.57-80.4 8.89-8.22 20.39-12.87 31.93-15.97 27.67-7.54 55.53-14.86 82.01-26.04 16.97-7.4099 32.73-17.46 50.21-23.73z"/>
	<path d="m579.11 502.25c2.75-8.48 3.59-17.53 6.62-25.92 13.1 4.06 26.81 5.53 40.38 7.05 23.9 2.66 48.05 2.33 71.95-0.09-4.59 7.72-10.33 14.77-16.84 20.94-5.95 5.68-13.27 9.52-20.15 13.89-11.33 7.09-22.72 14.29-32.56 23.4-6.24 5.98-12.76 13.3-12.74 22.47 0.1 8.28-0.34 17.1 3.64 24.66 3.1 5.63 7.73 10.19 12.22 14.71 5.07 5.24 12.43 7.12 19.27 8.88 7.69 1.57 15.97 3.32 23.56 0.39 23.3-7.86 46.28-16.8 68.28-27.84 41.69-20.68 80.15-48.16 124.45-63.38 4.84-1.4 9.57-3.8 14.74-3.59 12.33 0.04 25.25-2.63 37.06 2.19 23.37 8.04 46.49 17.72 66.45 32.54 34.4 25.68 72.3 46.03 109.11 67.95 30.87 18.24 60.01 39.17 89.67 59.26 19.67 13.42 39.46 26.67 59.64 39.33 16.39 9.94 32.17 20.92 47.05 33.05 12.65 9.92 22.78 22.52 34.15 33.8 14.14 13.69 22.3 32.1 28.59 50.44 2.71 9.59 2.73 19.68 2.62 29.57-0.1901 9.83-4.25 18.97-8.8101 27.49-4.6499 9.44-11.15 18.09-19.43 24.65-3.0701 2.2599-6.8201 4.97-10.83 3.6299-19.89-4.72-39.42-11.26-57.82-20.2-31.86-17.14-56.43-44.45-86.01-64.85-18.61-13.15-38.28-24.7-58.04-36.01-4.72-2.5-9.1-5.69-14.07-7.66-1.61 3.17-3.45 6.21-5.24 9.28-3.6801-1.2401-8.5601 2.55-6.8301 6.3799 4.3201 3.46 9.0801 6.33 13.56 9.6 3.89 2.39 6.76 6.15 11.04 7.95 11.36 7.77 22.67 15.69 34.83 22.19 4.11 2.11 8.11 4.74 12.8 5.34 10.88 10.39 21.12 21.49 32.6 31.25 1.9399 1.47 3.22 3.54 4.28 5.7 5.1899 10.14 12.75 18.79 18.29 28.72 3.7001 6.61 6.86 13.83 7.17 21.52 0.16 13.16-0.29 26.64-4.89 39.14-2.48 6.44-4.66 13.22-9.22 18.56-6.02 7.22-13.94 12.61-22.23 16.91-2.0601 1.01-4.11 2.19-6.4 2.53-18.88 1.06-38.13-2.47-55.1-10.92-19.45-9.44-35.62-24.15-51.03-39.04-24.5-23.51-48.04-48.85-77.72-65.98-2.07 3.53-4.17 7.04-6.03 10.69 17.81 10.19 33.28 23.87 48.15 37.88 14.02 13.31 27.54 27.15 41.92 40.08 13.86 12.42 29.21 23.62 46.59 30.55 0.5699 4.7599 1.48 9.81 0.35 14.52-3.38 5.79-4.55 12.43-6.6 18.73-1.91 4.9801-6.05 8.5701-9.5901 12.38-2.9299 3.2101-7.2899 4.38-11.25 5.75-9.35 2.7001-18.85 6.78-28.79 5.23-5.53-1-11.06-2.0499-16.51-3.3999-10.95-3.98-21.31-9.42-32.19-13.57-4.68-1.6-8.33-5.0399-12.24-7.9-15.92-12.36-30.51-26.33-46.69-38.35-8.95-6.72-17.87-13.5-26.96-20.03-11.29-6.57-24.87-6.4-37.45-8.27-0.68 4.02-1.54 8.02-1.81 12.1 10.76 1.69 22.19 1.44 32.2 6.2 14.74 10.87 29.64 21.58 43.66 33.38 11.57 9.86 22.95 19.97 35.23 28.96 0.2401 9.0199-2.85 17.81-6.1299 26.09-3.8701 2.75-8.67 3.91-12.87 6.1-10.19 5.36-22.22 6.5601-33.5 4.95-7.37-0.87-12.82-6.26-18.9-9.9299-7.96-5.01-15.39-10.91-23.73-15.27-5.3-2.78-11.25-0.71-15.97 2.2-20.19-18.31-33.41-42.6-51.37-62.86-2.33-2.31-1.74-6.39-5.05-7.9301-7.34-1.04-14.83-1.65-22.21-0.84-2.48 0.61-4.94-0.17-7.37-0.54-4.36-0.76-8.79-0.96-13.19-1.32 3.1-5.88 6.02-11.99 6.91-18.64 1.45-10.73 0.96-21.94-2.8101-32.17-1.61-4.47-3.78-8.7-6.03-12.87-3.26-5.8701-6.09-12.22-11.37-16.61-8.53-7.35-18.91-13.69-30.48-14-7.46-0.39-15.13-0.8-22.4 1.29-4.09 1.08-7.96 2.79-11.85 4.41-4.1201-11.41-9.13-22.67-16.61-32.32-7.85-10.21-18.83-18.54-31.64-21.14-11.47-2.15-23.25 0.33-34.18 3.91-6.96 2.58-14.26 4.95-20.05 9.78-3.77 3.09-6.38 7.27-9.18 11.19-20.99-18.01-43.07-35.83-69.39-45.35-4.18-1.79-9.3-1.95-12.32-5.74-2.66-0.39-4.65 2-6.53 3.52-3.31 3-5.33 7.09-6.79 11.26-6.43 2.25-12.81 4.66-19.26 6.83-0.67-2.27-0.97-4.62-0.74-6.96 0.8-15.4 1.43-30.8 2.2-46.2 0.14-3.58 1.23-7.02 1.97-10.5 10.4-45.99 20.79-91.99 31.18-137.98 2.66-13.22 7.46-25.85 11.26-38.75 3.97-11.6 6.53-23.59 9.58-35.44 1.95-8.53 5.15-16.69 7.8199-25.01 4-11.63 7.4901-23.44 12.06-34.86 2.9405-7.71 5.9405-15.4 8.8905-23.11z"/>
	<path d="m529.64 901.09c-2.85-15.39-1.25-31.12-0.82-46.64 27.56 8.13 50.33 26.53 71.79 44.9 4.14 3.2 7.68 7.2 12.18 9.92 3.42-6 6.56-12.22 10.76-17.74 3.31-4.3701 8.58-6.45 13.51-8.41 10.36-3.98 21.56-7.15 32.75-5.53 10.85 2.1299 19.8 9.74 26.08 18.55 8.64 12.01 13.42 26.22 17.21 40.38 9.69-4.25 18.96-10.51 29.81-11.16 5.85-0.16 11.79-0.08 17.53 1.16 6.3 2.06 12.05 5.67 16.99 10.07 3.98 3.3199 5.83 8.3 8.37 12.67 4.1 7.32 7.72 15.19 8.24 23.7 0.69 8.72 0.15 17.97-4.35 25.71-3.96 7.23-8.75 13.96-12.83 21.12 11.03 0.09 22.14-0.33 33.09 1.26 11.58 1.77 22.08 7.28 32.14 12.99 3.16 0.86 4.72 3.86 6.6299 6.25 12.15 16.01 23.31 32.97 37.85 46.99-17.33 9.51-37.37 16.89-57.42 13.61-4.42-0.71-8.95-0.85-13.3-1.85-6.29-4.92-8.8199-12.98-14.06-18.84-5.36-6.0199-11.85-10.91-18.4-15.56-7.38-4.9-14.97-9.91-23.61-12.26-12.37-2.78-25.04-4.6-36.93-9.1801-3.5699-1.47-7.41-3.0599-9.66-6.37-4.59-6.38-10.21-12.02-14.16-18.86-3.6801-6.33-3.14-13.94-3.36-20.98 0.05-6.07-0.76-12.09-1.14-18.13-9.0601 3.79-15.82 11.48-24.14 16.57-2.23 1.23-4.73 2.67-7.37 1.96-6.63-1.23-13.3-2.4-19.7-4.52-9.06-2.86-16.8-8.55-24.97-13.2-3.98-2.13-6.77-6.02-7.44-10.49-2.94-17.17-4.29-34.62-4.1299-52.05-10.74 3.5-21.19 9.95-32.88 8.6-13.1-1.59-25.31-7.01-37.2-12.45-4.6799-2.11-5.9599-7.67-7.0599-12.19z"/>
</g>
	<path d="m1919 133.6l1.01-0.02v659.9l-0.78 0.71c-0.46-11.06-0.12-22.13-0.22-33.19 0-209.13 0.01-418.27-0.01-627.4z" fill="#1A1A1A" stroke="#1A1A1A" stroke-width=".0938"/>
	<path d="m938.13 350.2c19.81-2.65 40.28-1.76 59.46 4.17 7.08 2.24 14.12 4.65 21.29 6.62 22.06 5.59 44.81 7.74 66.88 13.24 19.93 4.45 39.87 8.85 59.83 13.18 12.68 2.57 25.4 4.96 38.02 7.88 19.94 4.35 39.6 9.89 59.46 14.58 22.27 4.73 44.84-0.38 66.86-4 8.85-1.82 17.08-5.76 25.09-9.84 1.1899-0.78 3.0699-1.34 2.9199-3.12-0.6899-3.12-2.0399-6.05-3.2999-8.96 4.6-4.15 10.87-5.37 16.31-8.04 4.8301-2.36 10.22-2.89 15.51-3.39 4.7101-0.4 8.8-2.97 12.82-5.25 10.55 3.26 21.08 6.59 31.65 9.82 3.9099 0.89 6.25 4.38 9.0299 6.95 15.08 14.93 30.21 29.8 45.31 44.7 5.01 5.4 8.99 11.64 13.55 17.41 12.43 16.58 24.9 33.13 37.34 49.7 2.5699 3.35 4.0599 7.34 5.87 11.13 7.95 17.04 15.82 34.13 23.81 51.17 10.16 21.12 20.6 42.12 30.68 63.28 7.2 21.71 13.86 43.6 20.86 65.38 2.38 7.12 4.12 14.51 7.55 21.24 6.1499 13.2 12.29 26.4 18.42 39.61 3.05 6.89 6.75 13.54 8.99 20.77 3.55 10.53 7.12 21.05 10.64 31.59-11.68 1.89-23.32 4.02-34.97 6.06-14.16 2.98-28.17 6.65-42.31 9.7-1.47 0.53-2.8899 1.17-4.2999 1.78-9.36 3.47-18.52 7.41-27.83 10.98-10.27 4.92-21.84 5.11-32.87 7.05-10.66 0.86-18.97 8.19-28.06 13.01-5.05 2.53-9.9501 7.44-16.05 5.77-10.48-2.09-21.1-3.35-31.53-5.6 0.6499-6.58 3.0599-12.78 4.61-19.17 2.34-9.52 4.97-18.97 7.5199-28.44 2.26-8.93 0.13-18.11-0.0199-27.14 0-7.39-0.78-14.73-1.3301-22.09-6.3099 3.19-9.23 10.02-14.23 14.67-6.97 6.36-14.09 12.56-21 18.99-7.97 7.11-16.97 12.95-24.89 20.14-4.58 4.34-10.37 6.86-16.1 9.27 2.9 9.89 7.29 19.28 10.13 29.2 3.03 9.91 5.33 20.47 3.26 30.82-1.62 9.63-7.28 17.81-11.82 26.24-4.6 7.57-8.7699 15.54-14.92 22-5.14 5.34-10.68 10.7-17.81 13.21-10.4 4.36-22.06 2.4301-32.57-0.46-25.55-7.02-47.21-23.11-67.92-38.98-1.25-0.83-2.5499-1.54-3.8199-2.25 2.7899 5.11 6.7999 9.5099 9.03 14.94 2.8899 7.07 4.2 14.65 4.98 22.22 1.86 19.01 2.38 39.01-5.3 56.93-4.0599 10.38-11.38 19.03-19.09 26.9-7.23 6.65-15.65 13.17-25.73 14.3-5.8201 0.89-11.43 2.8201-17.28 3.5-9.3201 1.2401-19.15 1.2201-27.76 5.4301-2.71 1.13-2.67 4.4301-3.29 6.86-1.0699 7.12-4.12 13.79-8.0599 19.77-4.61 7.3099-12.19 11.86-18.36 17.68-8.66 7.9099-20.75 10.96-32.26 10.46-9.39-0.8101-18.54-3.28-27.4-6.4301-9.04-2.48-18.28-4.47-26.74-8.6699-4.75 6.0499-2.8101 15.76-9.71 20.49-5.85 3.88-8.59 10.67-13.87 15.16-5.06 5.2401-12.25 7.7301-19.36 8.4901-10.16 1.2699-20.71 3.9099-30.82 1-8.55-3.26-16.92-6.9801-25.27-10.71-7.27-3.2999-14.78-6.14-21.58-10.36-3.17-1.8199-6-4.24-9.39-5.63-2.51 0.33-4.7 1.71-6.93 2.79-18.15 9.03-38.25 16.19-58.84 13.75-7.71-1.27-16.13-0.72-23.11-4.7001-6.89-4.97-9.99-13.31-15.23-19.74-4.88-5.84-11.06-10.38-17.2-14.79-7.05-4.8301-14.64-9.3501-23.15-10.94-11.07-2.13-22.16-4.39-32.81-8.15-4.83-1.75-9.71-3.87-13.42-7.5199-3.22-3.1901-5.58-7.0901-8.45-10.55-4.73-5.8-9.83-11.61-12.16-18.86-1.8-5.02-1.2401-10.55-3.21-15.52-6.24 3.44-12.71 8.15-20.25 6.89-13.09-2.1-26.57-4.76-37.9-12.03-6.81-4.43-14.57-7.73-20.01-13.97-4.29-4.78-5.7599-11.3-6.5099-17.5-1.07-10.11-2.47-20.2-2.95-30.37-5.5 0.27-10.73 2.37-16.25 2.37-13.34 0.31-26.01-4.7-38.16-9.64-5.33-2.43-11.28-4.2-15.44-8.52-5.31-6.27-7.42-14.53-8.43-22.51-1.12-9.87 0.03-19.82-0.66-29.71-4.88 0.32-9.47 2.13-13.97 3.92-1.3 0.59-3.28 1.28-2.75 3.13 0.72 5.7 2.94 11.07 4.21 16.67 1.3 5.99 4.02 11.8 3.56 18.06-9.35 1.82-18.79 3.19-28.14 5.02-3.34 0.5-7.07 1.77-10.17-0.22-8.22-4.77-16.42-9.59-24.58-14.45-5.91-3.35-12.88-3.51-19.41-4.71-6.43-1.18-13.12-1.22-19.29-3.57-11.56-4.33-22.9-9.19-34.42-13.61-10.87-3.38-22.18-5.06-33.11-8.21-0.48-0.13-1.43-0.39-1.9-0.52-8.91-2.4-18.06-3.63-27.11-5.3-7.28-1.19-14.5-2.77-21.82-3.67 3.55-18.29 7.22-36.56 10.83-54.84 1.68-6.81 4.78-13.15 7.09-19.74 29.9-78.21 59.48-156.54 89.3-234.78 14.48-30.1 29.25-60.06 43.8-90.13 1.93-4.19 4.7-7.91 7.17-11.79 8.17-12.56 16.31-25.14 24.53-37.67 11.26 2.91 22.66 5.2 33.94 8.02 9.34 2.82 18.5 6.19 27.78 9.18 7.99 2.39 16.43 2.26 24.63 3.42 9.01 1.3 18.52 0.92 26.88 5.04 4.74 2.31 9.99 3.67 14.33 6.75 1.51 1 0.46 3.05 0.07 4.39-2.3 5.4-5.54 10.34-7.62 15.85 1.91 1.02 3.91 1.89 6.0699 2.25 24.42 4.92 49.4 7.17 74.3 6.65 10.65-0.65 21.28-1.59 31.93-2.21 4.33 0.04 6.66-4.08 8.55-7.35 3.84-7.26 8.68-13.91 13.32-20.66 9-13.8 21.15-26.03 36.59-32.37 17.88-7.4 37.13-10.53 55.47-16.53 18.59-5.55 36.99-12.01 54.35-20.76 14.73-7.72 29.51-15.76 45.63-20.24 7.2398-2.0898 14.84-1.8098 22.27-2.7098m-25.48 16.58c-17.48 6.27-33.24 16.32-50.21 23.73-26.48 11.18-54.34 18.5-82.01 26.04-11.54 3.1-23.04 7.75-31.93 15.97-24.34 23.14-34.23 57.27-58.57 80.4-6.78 6.52-15.08 11.03-22.98 15.99-8.78 5.4301-17.46 11.07-25.5 17.56-4.52 3.78-9.03 7.8-12.06 12.92-1.83 2.87-1.4 6.39-1.38 9.63 0.2 5.07 0.04 10.57 2.92 15.01 2.33 3.59 5.42 6.59 8.39 9.65 3.63 4.1 9.24 5.29 14.31 6.63 5.14 1.07 10.57 2.3 15.79 1.06 17.84-5.93 35.47-12.57 52.61-20.32 45.29-20.14 85.6-50.17 132.04-67.89 13.07-5.01 26.55-9.02 40.32-11.63 13.55-2.4 27.55-1.07 40.8 2.42 21.15 5.66 40.58 16.24 59.06 27.77 16.11 10.06 31.45 21.28 47.33 31.71 35.74 23.86 71.62 47.51 106.81 72.17 28.22 19.88 56.19 40.17 85.41 58.59 17.45 10.73 35.86 20.16 51.58 33.46 6.72 5.58 12.44 12.21 18.54 18.42 13.48 14.19 26.98 28.34 40.68 42.33 4.52 4.28 8.4401 9.28 13.44 13.03 6.95-1.24 11.43-7.54 16.89-11.5 8.46-6.1 16.5-12.76 24.11-19.89 6.2899-6.03 13.55-11.14 18.74-18.25 4.3199-5.82 9.8199-10.67 16.23-14.07 0.55-1.92-0.59-3.91-0.8201-5.8199-10.73-47.29-21.36-94.6-32.09-141.89-5.6699-19.63-12.76-38.86-17.2-58.84-2.86-13.42-7.75-26.24-11.98-39.25-5.3301-17.08-12.03-33.67-18.43-50.36-2.29-7.43-3.58-15.12-5.48-22.65-1.28-4.79-1.77-9.84-3.97-14.34-9.89 5.25-20.05 10.27-31.1 12.49-23.15 4.42-47.09 9.02-70.61 4.66-30.27-7.43-60.43-15.43-91.08-21.2-26.17-5.4-52.24-11.29-78.3-17.18-23.93-4.94-48.59-7.06-71.67-15.58-17.95-6.56-37.38-8.17-56.33-6.46-10.86 1.0699-21.97 1.6599-32.3 5.4799m-333.54 135.47c-2.95 7.71-5.95 15.4-8.89 23.11-4.5699 11.42-8.06 23.23-12.06 34.86-2.67 8.32-5.87 16.48-7.8199 25.01-3.05 11.85-5.61 23.84-9.58 35.44-3.8 12.9-8.6 25.53-11.26 38.75-10.39 45.99-20.78 91.99-31.18 137.98-0.74 3.48-1.83 6.92-1.97 10.5-0.77 15.4-1.4 30.8-2.2 46.2-0.23 2.34 0.07 4.69 0.74 6.96 6.45-2.17 12.83-4.58 19.26-6.83 1.46-4.17 3.48-8.26 6.79-11.26 1.88-1.52 3.87-3.91 6.53-3.52 3.02 3.79 8.14 3.95 12.32 5.74 26.32 9.52 48.4 27.34 69.39 45.35 2.8-3.92 5.41-8.1 9.18-11.19 5.79-4.83 13.09-7.2 20.05-9.78 10.93-3.58 22.71-6.06 34.18-3.91 12.81 2.6 23.79 10.93 31.64 21.14 7.48 9.65 12.49 20.91 16.61 32.32 3.89-1.62 7.7599-3.33 11.85-4.41 7.27-2.09 14.94-1.68 22.4-1.29 11.57 0.31 21.95 6.65 30.48 14 5.28 4.39 8.11 10.74 11.37 16.61 2.25 4.17 4.42 8.4 6.03 12.87 3.77 10.23 4.26 21.44 2.8101 32.17-0.89 6.65-3.8101 12.76-6.91 18.64 4.4 0.36 8.83 0.56 13.19 1.32 2.43 0.37 4.89 1.15 7.37 0.54 7.38-0.81 14.87-0.2 22.21 0.84 3.31 1.54 2.72 5.6201 5.05 7.9301 17.96 20.26 31.18 44.55 51.37 62.86 4.72-2.9099 10.67-4.98 15.97-2.2 8.34 4.36 15.77 10.26 23.73 15.27 6.08 3.6699 11.53 9.0599 18.9 9.9299 11.28 1.6101 23.31 0.41 33.5-4.95 4.2-2.1899 9-3.35 12.87-6.1 3.28-8.28 6.37-17.07 6.1299-26.09-12.28-8.9901-23.66-19.1-35.23-28.96-14.02-11.8-28.92-22.51-43.66-33.38-10.01-4.7599-21.44-4.5099-32.2-6.2 0.27-4.08 1.13-8.08 1.81-12.1 12.58 1.87 26.16 1.7 37.45 8.27 9.09 6.53 18.01 13.31 26.96 20.03 16.18 12.02 30.77 25.99 46.69 38.35 3.91 2.8601 7.56 6.3 12.24 7.9 10.88 4.15 21.24 9.5901 32.19 13.57 5.45 1.35 10.98 2.3999 16.51 3.3999 9.9399 1.55 19.44-2.5299 28.79-5.23 3.9601-1.37 8.3201-2.5399 11.25-5.75 3.54-3.8099 7.6801-7.3999 9.5901-12.38 2.0499-6.2999 3.22-12.94 6.6-18.73 1.13-4.71 0.22-9.76-0.35-14.52-17.38-6.93-32.73-18.13-46.59-30.55-14.38-12.93-27.9-26.77-41.92-40.08-14.87-14.01-30.34-27.69-48.15-37.88 1.86-3.65 3.96-7.16 6.03-10.69 29.68 17.13 53.22 42.47 77.72 65.98 15.41 14.89 31.58 29.6 51.03 39.04 16.97 8.45 36.22 11.98 55.1 10.92 2.29-0.34 4.34-1.52 6.4-2.53 8.2899-4.3 16.21-9.69 22.23-16.91 4.5599-5.34 6.74-12.12 9.22-18.56 4.6-12.5 5.05-25.98 4.89-39.14-0.3101-7.69-3.47-14.91-7.17-21.52-5.5399-9.93-13.1-18.58-18.29-28.72-1.0601-2.16-2.3401-4.23-4.28-5.7-11.48-9.76-21.72-20.86-32.6-31.25-4.6901-0.6-8.6901-3.23-12.8-5.34-12.16-6.5-23.47-14.42-34.83-22.19-4.28-1.8-7.15-5.56-11.04-7.95-4.48-3.27-9.24-6.14-13.56-9.6-1.73-3.83 3.15-7.62 6.8301-6.3799 1.79-3.07 3.63-6.11 5.24-9.28 4.97 1.97 9.35 5.16 14.07 7.66 19.76 11.31 39.43 22.86 58.04 36.01 29.58 20.4 54.15 47.71 86.01 64.85 18.4 8.94 37.93 15.48 57.82 20.2 4.01 1.34 7.76-1.37 10.83-3.6299 8.28-6.56 14.78-15.21 19.43-24.65 4.5601-8.52 8.62-17.66 8.8101-27.49 0.11-9.89 0.09-19.98-2.62-29.57-6.29-18.34-14.45-36.75-28.59-50.44-11.37-11.28-21.5-23.88-34.15-33.8-14.88-12.13-30.66-23.11-47.05-33.05-20.18-12.66-39.97-25.91-59.64-39.33-29.66-20.09-58.8-41.02-89.67-59.26-36.81-21.92-74.71-42.27-109.11-67.95-19.96-14.82-43.08-24.5-66.45-32.54-11.81-4.82-24.73-2.15-37.06-2.19-5.17-0.21-9.9 2.19-14.74 3.59-44.3 15.22-82.76 42.7-124.45 63.38-22 11.04-44.98 19.98-68.28 27.84-7.59 2.93-15.87 1.18-23.56-0.39-6.84-1.76-14.2-3.64-19.27-8.88-4.49-4.52-9.12-9.08-12.22-14.71-3.98-7.56-3.54-16.38-3.64-24.66-0.02-9.17 6.5-16.49 12.74-22.47 9.84-9.11 21.23-16.31 32.56-23.4 6.88-4.37 14.2-8.21 20.15-13.89 6.51-6.17 12.25-13.22 16.84-20.94-23.9 2.42-48.05 2.75-71.95 0.09-13.57-1.52-27.28-2.99-40.38-7.05-3.0305 8.39-3.8705 17.44-6.6205 25.92m-49.47 398.84c1.1 4.52 2.38 10.08 7.06 12.19 11.89 5.4399 24.1 10.86 37.2 12.45 11.69 1.35 22.14-5.1 32.88-8.6-0.16 17.43 1.1899 34.88 4.1299 52.05 0.67 4.47 3.46 8.36 7.44 10.49 8.17 4.65 15.91 10.34 24.97 13.2 6.4 2.12 13.07 3.29 19.7 4.52 2.64 0.71 5.14-0.73 7.37-1.96 8.32-5.09 15.08-12.78 24.14-16.57 0.3799 6.04 1.1899 12.06 1.14 18.13 0.22 7.04-0.32 14.65 3.36 20.98 3.95 6.8401 9.5699 12.48 14.16 18.86 2.25 3.3101 6.09 4.9 9.66 6.37 11.89 4.5801 24.56 6.4 36.93 9.1801 8.64 2.35 16.23 7.36 23.61 12.26 6.55 4.65 13.04 9.54 18.4 15.56 5.2401 5.8601 7.77 13.92 14.06 18.84 4.35 1 8.88 1.14 13.3 1.85 20.05 3.28 40.09-4.1 57.42-13.61-14.54-14.02-25.7-30.98-37.85-46.99-1.91-2.39-3.47-5.39-6.6299-6.25-10.06-5.7101-20.56-11.22-32.14-12.99-10.95-1.59-22.06-1.17-33.09-1.26 4.08-7.16 8.87-13.89 12.83-21.12 4.5-7.74 5.04-16.99 4.35-25.71-0.52-8.51-4.14-16.38-8.24-23.7-2.54-4.37-4.39-9.35-8.37-12.67-4.94-4.4-10.69-8.01-16.99-10.07-5.74-1.24-11.68-1.32-17.53-1.16-10.85 0.65-20.12 6.91-29.81 11.16-3.79-14.16-8.5699-28.37-17.21-40.38-6.28-8.81-15.23-16.42-26.08-18.55-11.19-1.6201-22.39 1.55-32.75 5.53-4.93 1.96-10.2 4.04-13.51 8.41-4.2 5.52-7.34 11.74-10.76 17.74-4.5-2.72-8.04-6.72-12.18-9.92-21.46-18.37-44.23-36.77-71.79-44.9-0.4301 15.52-2.0301 31.25 0.8199 46.64z" fill="#fff" stroke="#fff" stroke-width=".0938"/>
<g fill="#666" stroke="#666" stroke-width=".0938">
	<path d="m1608 806.08c11.65-2.04 23.29-4.17 34.97-6.06 3.64 10.69 7.34 21.37 10.84 32.11 3.3301 11.39 6.5701 22.81 9.87 34.21 2.3101 8.16 5.2201 16.2 6.29 24.67 1.88 13 4.3201 25.93 6.0701 38.94 0.47 1.71-1.75 1.97-2.8201 2.43-7.53 2.19-15.65 2.79-23.28 0.74-12.43-3.33-24.33-9.43-33.29-18.8-13.34-13.81-22.44-30.96-30.94-48-4.4399-8.96-7.9199-18.41-13.14-26.97-3.1499-5.68-6.83-11.2-8.6899-17.48-1.01-2.26 0.7999-4.23 1.8099-6.09 14.14-3.05 28.15-6.72 42.31-9.7z"/>
	<path d="m1731.4 820.57c13.15-2.81 26.27 10.31 23.71 23.44-1.2899 11.48-13.86 19.8-24.94 16.89-7.86-2.13-14.81-8.8-15.72-17.11-1.9601-10.59 6.4098-21.65 16.95-23.22z"/>
	<path d="m195.45 892.64c6.23-1.21 13.52-1.21 18.36 3.54 8.84 5.59 10.46 18.45 5.4 27.09-4.99 8.1-15.96 11.74-24.83 8.34-5.36-1.73-9.55-6.14-11.73-11.24-2.36-5.3-1.2-11.31 0.21-16.68 2.65-4.97 7.12-9.36 12.59-11.05z"/>
</g>
<g fill="#717171" stroke="#717171" stroke-width=".0938">
	<path d="m1731.3 818.41c12.49-2.25 25.58 7.81 26.07 20.6 1.53 12.64-9.61 25.04-22.4 24.5-11.86 0.61-22.6-9.69-22.99-21.44-0.7701-11.29 8.05-22.24 19.32-23.66m0.03 2.16c-10.54 1.57-18.91 12.63-16.95 23.22 0.9099 8.31 7.86 14.98 15.72 17.11 11.08 2.91 23.65-5.41 24.94-16.89 2.5601-13.13-10.56-26.25-23.71-23.44z"/>
	<path d="m196.29 890.3c13.16-3.64 27.71 7.02 28.04 20.69 1.27 12.5-9.77 24.35-22.3 24.11-12.05 0.67-23.16-10.04-23.14-22.07-0.55-10.49 7.23-20.41 17.4-22.73m-0.84 2.34c-5.47 1.69-9.94 6.08-12.59 11.05-1.41 5.37-2.57 11.38-0.21 16.68 2.18 5.1 6.37 9.51 11.73 11.24 8.87 3.4 19.84-0.24 24.83-8.34 5.06-8.64 3.44-21.5-5.4-27.09-4.84-4.75-12.13-4.75-18.36-3.54z"/>
</g>
	<path d="m286.92 860.43c7.32 0.9 14.54 2.48 21.82 3.67 9.05 1.67 18.2 2.9 27.11 5.3-4.71 12.63-7.32 26.2-14.58 37.74-6.65 12.82-14.04 25.22-21.74 37.44-3.68 5.59-6.47 11.87-11.27 16.66-6.18 6.16-12.33 12.35-18.53 18.49-3.6 3.55-6.95 7.37-10.99 10.44 1.23-6.77 4.08-13.09 5.66-19.76 4.72-16.55 6.17-33.78 10.59-50.39 4.12-19.84 7.92-39.73 11.93-59.59z" fill="#4D4D4D" stroke="#4D4D4D" stroke-width=".0938"/>
</svg>