<svg xmlns="http://www.w3.org/2000/svg" height="48" viewBox="0 -960 960 960" width="48"><path d="M479.956-493q-76.826 0-124.391-48.065Q308-589.13 308-665.296q0-76.167 47.406-123.935Q402.812-837 479.637-837q76.826 0 125.094 47.656Q653-741.688 653-664.796q0 75.666-48.109 123.731Q556.781-493 479.956-493ZM138-130v-115.795q0-43.979 22.828-76.61T220-372q68-32 131.72-47 63.721-15 127.772-15 65.97 0 128.739 16 62.769 16 130.69 46.194 37.911 15.778 60.995 48.556Q823-290.472 823-246.055V-130H138Zm91-91h502v-21q0-15.353-9.7-30.063Q711.6-286.772 697-293q-60-29-109.995-39-49.996-10-108-10Q423-342 372-331.5q-51 10.5-108.571 38.344-15.679 6.584-25.054 20.976Q229-257.788 229-242v21Zm250.796-363Q514-584 537.5-607.346t23.5-57.619q0-34.685-23.296-58.36Q514.407-747 480.204-747 446-747 422.5-723.279T399-665.46q0 34.51 23.296 57.985Q445.593-584 479.796-584Zm.204-81Zm0 444Z"/></svg>